<?xml version="1.0" encoding="UTF-8"?><svg version="1.1" width="140px" height="106px" viewBox="0 0 140.0 106.0" xmlns="http://www.w3.org/2000/svg" xmlns:xlink="http://www.w3.org/1999/xlink"><defs><clipPath id="i0"><path d="M140,0 L140,106 L0,106 L0,0 L140,0 Z"></path></clipPath><clipPath id="i1"><path d="M7.78282828,90.6319575 C7.78282828,95.6572955 10.3093592,98.1699645 15.3624212,98.1699645 L124.656105,98.1699645 C129.696816,97.7357728 132.217172,95.0470253 132.217172,90.1037221 L132.217172,16.1918974 C132.217172,10.1772755 129.696816,7.16996451 124.656105,7.16996451 L15.3624212,7.16996451 C10.3093592,7.16996451 7.78282828,10.1772755 7.78282828,16.1918974 L7.78282828,46.2638207 L7.78282828,90.6319575 Z M0,16.1918974 C0,5.39729914 5.12080705,0 15.3624212,0 L125.074591,0 C135.025697,0 140.001249,5.39729914 140.001249,16.1918974 L140.001249,90.6319575 C140.001249,100.877833 134.886201,106.000771 124.656105,106.000771 L15.3624212,106.000771 C5.12080705,106.000771 0,100.877833 0,90.6319575 L0,46.2638207 L0,16.1918974 Z"></path></clipPath><clipPath id="i2"><path d="M71.25,0 C73.3210678,-3.80448985e-16 75,1.67893219 75,3.75 C75,5.82106781 73.3210678,7.5 71.25,7.5 L3.75,7.5 C1.67893219,7.5 2.53632657e-16,5.82106781 0,3.75 C-2.53632657e-16,1.67893219 1.67893219,3.80448985e-16 3.75,0 L71.25,0 Z"></path></clipPath><clipPath id="i3"><path d="M3.74914637,0.00170696227 L70.6059374,0.0321446011 C70.195296,0.0481561979 69.9025742,0.0757425927 69.727772,0.114903786 C69.1126767,0.252704504 68.6215227,0.532859884 68.3871268,0.710612329 C68.2697218,0.799645569 68.1328158,0.885323538 68.021676,0.985671336 C67.7332975,1.24604742 67.5043476,1.56064448 67.3314973,1.82056262 C67.1738349,2.05764259 67.0689152,2.30251701 66.9874228,2.53283909 C66.7757833,3.13099585 66.7725118,3.67720255 66.7887524,4.07785553 C66.8431159,4.63128024 66.8972358,5.15368832 66.9522893,5.67909577 C66.9917918,6.05609174 67.0542337,6.61258384 67.1396148,7.34857207 L3.74999046,7.4915422 C1.68359376,7.49620279 0.00467010583,5.82483544 9.51643722e-06,3.75843874 C-2.53517212e-16,1.67987486 1.678168,0.00170686516 3.74829313,0.00170686516 Z"></path></clipPath><clipPath id="i4"><path d="M52.0600113,0 C52.0600113,0 51.9121431,1.86650951 51.7642749,3.73301902 L51.7200623,4.29110536 C51.5883118,5.95416533 51.4685385,7.46603803 51.4685385,7.46603803 C51.4687935,7.4663679 51.462681,7.4666959 51.4502008,7.46702204 L51.3936578,7.46799489 C51.2297586,7.47009062 50.7968298,7.47210773 50.0948714,7.47404623 L49.7517879,7.47493533 C49.4499661,7.4756716 49.108347,7.47639624 48.7269306,7.47710925 L48.2501282,7.47795928 C47.836874,7.47866299 47.3838225,7.47935507 46.8909737,7.48003551 L46.2804524,7.48084647 C45.9656405,7.48124915 45.6365015,7.48164765 45.2930355,7.48204196 L44.5870008,7.482825 C44.4661445,7.48295458 44.3436964,7.48308369 44.2196564,7.48321234 L43.4563136,7.48397863 C43.0650908,7.48435899 42.659541,7.48473515 42.2396642,7.48510714 L41.3808079,7.48584552 C41.2344814,7.48596765 41.0865631,7.48608932 40.9370528,7.48621052 L40.0208884,7.48693216 C39.8650106,7.4870515 39.7075408,7.48717037 39.5484792,7.48728879 L38.5750067,7.48799367 C38.0787191,7.48834333 37.5681045,7.48868879 37.0431629,7.48903007 L35.974177,7.48970704 C35.7928289,7.48981894 35.6098889,7.48993038 35.425357,7.49004134 L34.299063,7.49070157 C34.1081635,7.49081068 33.9156722,7.49091932 33.7215889,7.4910275 L31.9318587,7.49198853 C31.7282241,7.49209392 31.5229977,7.49219884 31.3161793,7.49230329 L30.0561664,7.49292445 C29.8429805,7.49302704 29.6282026,7.49312917 29.4118329,7.49323083 L28.0945119,7.49383524 C27.8717746,7.49393504 27.6474455,7.49403438 27.4215244,7.49413325 L26.0468953,7.49472091 C25.8146067,7.49481792 25.5807262,7.49491447 25.3452538,7.49501055 L23.183021,7.49586273 C22.9379973,7.49595602 22.6913816,7.49604884 22.4431741,7.4961412 L20.1663251,7.49695988 C19.9085662,7.49704945 19.6492154,7.49713856 19.3882728,7.49722719 L17.803514,7.49775344 C17.5362038,7.49784022 17.2673017,7.49792653 16.9968077,7.49801238 L14.5193804,7.49877245 C14.239335,7.4988555 13.9576978,7.4989381 13.6744686,7.49902022 L10.199308,7.4999834 C9.90334376,7.5000618 9.60578759,7.50013974 9.30663952,7.50021722 L6.57132588,7.50090192 C6.26262647,7.5009766 5.95233517,7.50105082 5.64045197,7.50112457 L3.75005011,7.5015615 C1.67942242,7.50204271 0.000467840638,5.8238465 9.5658419e-08,3.75321881 C-2.53636041e-16,1.68127643 1.67890455,0.00229538669 3.75,0.00220102661 C19.8533371,0.00146735108 35.9566742,0.000733675538 52.0600113,0 Z"></path></clipPath><clipPath id="i5"><path d="M3.74962702,0.0528885751 L52.3674198,0.738643657 C52.3674198,0.738643657 53.0965352,8.32572011 53.0965352,8.32572011 C36.647539,8.06991684 20.1985428,7.81411358 3.74954663,7.55831032 C1.66936446,7.52596079 2.54779645e-16,5.83043369 0,3.75 C-2.50080391e-16,1.70793864 1.65541782,0.0525208201 3.69747918,0.0525208201 L3.74962702,0.0528885751 Z"></path></clipPath></defs><g clip-path="url(#i0)"><g transform="translate(0.0 -0.0006731757402747007)"><g clip-path="url(#i1)"><polygon points="0,0.00067317574 140,0.00067317574 140,106.000673 0,106.000673 0,0.00067317574" stroke="none" fill="rgba(255, 255, 255, 0.4)"></polygon></g><g transform="translate(19.69323063291469 12.822959581217773) rotate(42.0)"><g clip-path="url(#i2)"><polygon points="-1.0658141e-14,0 75,0 75,7.5 -1.0658141e-14,7.5 -1.0658141e-14,0" stroke="none" fill="rgba(255, 255, 255, 0.4)"></polygon></g></g><g transform="translate(125.07459123409762 18.904056498263266) rotate(137.99999999999997)"><g clip-path="url(#i3)"><polygon points="0,0.00170686516 70.6059374,0.00170686516 70.6059374,7.49155193 0,7.49155193 0,0.00170686516" stroke="none" fill="rgba(255, 255, 255, 0.4)"></polygon></g></g><g transform="translate(120.52690576396486 92.83665619592435) rotate(-136.5)"><g clip-path="url(#i4)"><polygon points="0,5.68434189e-14 52.0600113,5.68434189e-14 52.0600113,7.50156161 0,7.50156161 0,5.68434189e-14" stroke="none" fill="rgba(255, 255, 255, 0.4)"></polygon></g></g><g transform="translate(14.159505310745033 87.97982511753247) rotate(-42.50000000000002)"><g clip-path="url(#i5)"><polygon points="0,0.0525208201 53.0965352,0.0525208201 53.0965352,8.32572011 0,8.32572011 0,0.0525208201" stroke="none" fill="rgba(255, 255, 255, 0.4)"></polygon></g></g></g></g></svg>